<mxfile host="app.diagrams.net" agent="Mozilla/5.0 (Windows NT 10.0; Win64; x64) AppleWebKit/537.36 (KHTML, like Gecko) Chrome/136.0.0.0 Safari/537.36" version="27.0.6">
  <diagram id="7POO8YVk538lAPWGpWl2" name="페이지-1">
    <mxGraphModel dx="1158" dy="586" grid="1" gridSize="10" guides="1" tooltips="1" connect="1" arrows="1" fold="1" page="1" pageScale="1" pageWidth="1654" pageHeight="2336" math="0" shadow="0">
      <root>
        <mxCell id="0" />
        <mxCell id="1" parent="0" />
        <mxCell id="b7lioFWHBZrYRU6YxalM-2" value="Member" style="shape=umlActor;verticalLabelPosition=bottom;verticalAlign=top;html=1;outlineConnect=0;" vertex="1" parent="1">
          <mxGeometry x="40" y="80" width="30" height="60" as="geometry" />
        </mxCell>
        <mxCell id="b7lioFWHBZrYRU6YxalM-4" value="" style="html=1;verticalLabelPosition=bottom;align=center;labelBackgroundColor=#ffffff;verticalAlign=top;strokeWidth=2;strokeColor=light-dark(#0080F0,#FFFFFF);shadow=0;dashed=0;shape=mxgraph.ios7.icons.reload;" vertex="1" parent="1">
          <mxGeometry x="342.5" y="90" width="55" height="55" as="geometry" />
        </mxCell>
        <mxCell id="b7lioFWHBZrYRU6YxalM-15" value="" style="group" vertex="1" connectable="0" parent="1">
          <mxGeometry x="170" y="95" width="75" height="50" as="geometry" />
        </mxCell>
        <mxCell id="b7lioFWHBZrYRU6YxalM-12" value="" style="ellipse;whiteSpace=wrap;html=1;aspect=fixed;" vertex="1" parent="b7lioFWHBZrYRU6YxalM-15">
          <mxGeometry x="17.857142857142858" width="50" height="50" as="geometry" />
        </mxCell>
        <mxCell id="b7lioFWHBZrYRU6YxalM-13" value="" style="line;strokeWidth=2;html=1;" vertex="1" parent="b7lioFWHBZrYRU6YxalM-15">
          <mxGeometry x="3.5714285714285716" y="21.875" width="14.285714285714286" height="6.25" as="geometry" />
        </mxCell>
        <mxCell id="b7lioFWHBZrYRU6YxalM-14" value="" style="line;strokeWidth=2;direction=south;html=1;" vertex="1" parent="b7lioFWHBZrYRU6YxalM-15">
          <mxGeometry width="7.142857142857143" height="50" as="geometry" />
        </mxCell>
        <mxCell id="b7lioFWHBZrYRU6YxalM-16" value="" style="group" vertex="1" connectable="0" parent="1">
          <mxGeometry x="513.95" y="90" width="52.09" height="56" as="geometry" />
        </mxCell>
        <mxCell id="b7lioFWHBZrYRU6YxalM-8" value="" style="ellipse;whiteSpace=wrap;html=1;aspect=fixed;" vertex="1" parent="b7lioFWHBZrYRU6YxalM-16">
          <mxGeometry width="52.09" height="52.09" as="geometry" />
        </mxCell>
        <mxCell id="b7lioFWHBZrYRU6YxalM-11" value="" style="line;strokeWidth=2;html=1;" vertex="1" parent="b7lioFWHBZrYRU6YxalM-16">
          <mxGeometry y="49.48837209302326" width="52.09" height="6.511627906976745" as="geometry" />
        </mxCell>
        <mxCell id="b7lioFWHBZrYRU6YxalM-18" value=":LoginUI" style="text;html=1;align=center;verticalAlign=middle;whiteSpace=wrap;rounded=0;fillColor=none;strokeColor=light-dark(transparent,#000000);" vertex="1" parent="1">
          <mxGeometry x="177.5" y="148" width="60" height="30" as="geometry" />
        </mxCell>
        <mxCell id="b7lioFWHBZrYRU6YxalM-20" value=":Login" style="text;html=1;align=center;verticalAlign=middle;whiteSpace=wrap;rounded=0;fillColor=none;strokeColor=light-dark(transparent,#000000);" vertex="1" parent="1">
          <mxGeometry x="340" y="145" width="60" height="30" as="geometry" />
        </mxCell>
        <mxCell id="b7lioFWHBZrYRU6YxalM-23" value="User" style="text;html=1;align=center;verticalAlign=middle;whiteSpace=wrap;rounded=0;" vertex="1" parent="1">
          <mxGeometry x="510" y="146" width="60" height="30" as="geometry" />
        </mxCell>
        <mxCell id="b7lioFWHBZrYRU6YxalM-24" value="1: startInterface&lt;div&gt;2: enterIDPW&lt;/div&gt;&lt;div&gt;3: submitInfo&lt;/div&gt;" style="text;html=1;align=center;verticalAlign=middle;whiteSpace=wrap;rounded=0;" vertex="1" parent="1">
          <mxGeometry x="237.5" y="50" width="100" height="60" as="geometry" />
        </mxCell>
        <mxCell id="b7lioFWHBZrYRU6YxalM-25" value="4: authenticateUser" style="text;whiteSpace=wrap;" vertex="1" parent="1">
          <mxGeometry x="401.45" y="80" width="112.5" height="30" as="geometry" />
        </mxCell>
        <mxCell id="b7lioFWHBZrYRU6YxalM-29" value="" style="endArrow=classic;html=1;rounded=0;" edge="1" parent="1">
          <mxGeometry width="50" height="50" relative="1" as="geometry">
            <mxPoint x="70" y="120" as="sourcePoint" />
            <mxPoint x="170" y="120" as="targetPoint" />
          </mxGeometry>
        </mxCell>
        <mxCell id="b7lioFWHBZrYRU6YxalM-30" value="" style="endArrow=classic;html=1;rounded=0;" edge="1" parent="1">
          <mxGeometry width="50" height="50" relative="1" as="geometry">
            <mxPoint x="245" y="110" as="sourcePoint" />
            <mxPoint x="345" y="110" as="targetPoint" />
          </mxGeometry>
        </mxCell>
        <mxCell id="b7lioFWHBZrYRU6YxalM-31" value="" style="endArrow=classic;html=1;rounded=0;" edge="1" parent="1">
          <mxGeometry width="50" height="50" relative="1" as="geometry">
            <mxPoint x="400" y="109.52000000000001" as="sourcePoint" />
            <mxPoint x="510" y="110" as="targetPoint" />
          </mxGeometry>
        </mxCell>
        <mxCell id="b7lioFWHBZrYRU6YxalM-32" value="" style="endArrow=classic;html=1;rounded=0;" edge="1" parent="1">
          <mxGeometry width="50" height="50" relative="1" as="geometry">
            <mxPoint x="510" y="124" as="sourcePoint" />
            <mxPoint x="397.5" y="124" as="targetPoint" />
          </mxGeometry>
        </mxCell>
        <mxCell id="b7lioFWHBZrYRU6YxalM-34" value="5: verifyPassword" style="text;whiteSpace=wrap;" vertex="1" parent="1">
          <mxGeometry x="400.5" y="125" width="110" height="30" as="geometry" />
        </mxCell>
        <mxCell id="b7lioFWHBZrYRU6YxalM-38" value="" style="endArrow=classic;html=1;rounded=0;" edge="1" parent="1">
          <mxGeometry width="50" height="50" relative="1" as="geometry">
            <mxPoint x="343.5" y="125" as="sourcePoint" />
            <mxPoint x="240" y="125" as="targetPoint" />
          </mxGeometry>
        </mxCell>
        <mxCell id="b7lioFWHBZrYRU6YxalM-39" value="6: showLoginResult" style="text;whiteSpace=wrap;" vertex="1" parent="1">
          <mxGeometry x="237.5" y="125" width="110" height="30" as="geometry" />
        </mxCell>
        <mxCell id="b7lioFWHBZrYRU6YxalM-40" value="Member" style="shape=umlActor;verticalLabelPosition=bottom;verticalAlign=top;html=1;outlineConnect=0;" vertex="1" parent="1">
          <mxGeometry x="40" y="270" width="30" height="60" as="geometry" />
        </mxCell>
        <mxCell id="b7lioFWHBZrYRU6YxalM-41" value="" style="html=1;verticalLabelPosition=bottom;align=center;labelBackgroundColor=#ffffff;verticalAlign=top;strokeWidth=2;strokeColor=light-dark(#0080F0,#FFFFFF);shadow=0;dashed=0;shape=mxgraph.ios7.icons.reload;" vertex="1" parent="1">
          <mxGeometry x="342.5" y="280" width="55" height="55" as="geometry" />
        </mxCell>
        <mxCell id="b7lioFWHBZrYRU6YxalM-42" value="" style="group" vertex="1" connectable="0" parent="1">
          <mxGeometry x="170" y="285" width="75" height="50" as="geometry" />
        </mxCell>
        <mxCell id="b7lioFWHBZrYRU6YxalM-43" value="" style="ellipse;whiteSpace=wrap;html=1;aspect=fixed;" vertex="1" parent="b7lioFWHBZrYRU6YxalM-42">
          <mxGeometry x="17.857142857142858" width="50" height="50" as="geometry" />
        </mxCell>
        <mxCell id="b7lioFWHBZrYRU6YxalM-44" value="" style="line;strokeWidth=2;html=1;" vertex="1" parent="b7lioFWHBZrYRU6YxalM-42">
          <mxGeometry x="3.5714285714285716" y="21.875" width="14.285714285714286" height="6.25" as="geometry" />
        </mxCell>
        <mxCell id="b7lioFWHBZrYRU6YxalM-45" value="" style="line;strokeWidth=2;direction=south;html=1;" vertex="1" parent="b7lioFWHBZrYRU6YxalM-42">
          <mxGeometry width="7.142857142857143" height="50" as="geometry" />
        </mxCell>
        <mxCell id="b7lioFWHBZrYRU6YxalM-46" value="" style="group" vertex="1" connectable="0" parent="1">
          <mxGeometry x="513.95" y="280" width="52.09" height="56" as="geometry" />
        </mxCell>
        <mxCell id="b7lioFWHBZrYRU6YxalM-47" value="" style="ellipse;whiteSpace=wrap;html=1;aspect=fixed;" vertex="1" parent="b7lioFWHBZrYRU6YxalM-46">
          <mxGeometry width="52.09" height="52.09" as="geometry" />
        </mxCell>
        <mxCell id="b7lioFWHBZrYRU6YxalM-48" value="" style="line;strokeWidth=2;html=1;" vertex="1" parent="b7lioFWHBZrYRU6YxalM-46">
          <mxGeometry y="49.48837209302326" width="52.09" height="6.511627906976745" as="geometry" />
        </mxCell>
        <mxCell id="b7lioFWHBZrYRU6YxalM-49" value=":MainUI" style="text;html=1;align=center;verticalAlign=middle;whiteSpace=wrap;rounded=0;fillColor=none;strokeColor=light-dark(transparent,#000000);" vertex="1" parent="1">
          <mxGeometry x="177.5" y="338" width="60" height="30" as="geometry" />
        </mxCell>
        <mxCell id="b7lioFWHBZrYRU6YxalM-50" value=":Logout" style="text;html=1;align=center;verticalAlign=middle;whiteSpace=wrap;rounded=0;fillColor=none;strokeColor=light-dark(transparent,#000000);" vertex="1" parent="1">
          <mxGeometry x="340" y="335" width="60" height="30" as="geometry" />
        </mxCell>
        <mxCell id="b7lioFWHBZrYRU6YxalM-51" value=":Session" style="text;html=1;align=center;verticalAlign=middle;whiteSpace=wrap;rounded=0;" vertex="1" parent="1">
          <mxGeometry x="510" y="336" width="60" height="30" as="geometry" />
        </mxCell>
        <mxCell id="b7lioFWHBZrYRU6YxalM-52" value="1: clickLogout" style="text;html=1;align=center;verticalAlign=middle;whiteSpace=wrap;rounded=0;" vertex="1" parent="1">
          <mxGeometry x="237.5" y="270" width="100" height="30" as="geometry" />
        </mxCell>
        <mxCell id="b7lioFWHBZrYRU6YxalM-53" value="2: processLogout" style="text;whiteSpace=wrap;" vertex="1" parent="1">
          <mxGeometry x="401.45" y="270" width="112.5" height="30" as="geometry" />
        </mxCell>
        <mxCell id="b7lioFWHBZrYRU6YxalM-54" value="" style="endArrow=classic;html=1;rounded=0;" edge="1" parent="1">
          <mxGeometry width="50" height="50" relative="1" as="geometry">
            <mxPoint x="70" y="310" as="sourcePoint" />
            <mxPoint x="170" y="310" as="targetPoint" />
          </mxGeometry>
        </mxCell>
        <mxCell id="b7lioFWHBZrYRU6YxalM-55" value="" style="endArrow=classic;html=1;rounded=0;" edge="1" parent="1">
          <mxGeometry width="50" height="50" relative="1" as="geometry">
            <mxPoint x="245" y="300" as="sourcePoint" />
            <mxPoint x="345" y="300" as="targetPoint" />
          </mxGeometry>
        </mxCell>
        <mxCell id="b7lioFWHBZrYRU6YxalM-56" value="" style="endArrow=classic;html=1;rounded=0;" edge="1" parent="1">
          <mxGeometry width="50" height="50" relative="1" as="geometry">
            <mxPoint x="400" y="299.52" as="sourcePoint" />
            <mxPoint x="510" y="300" as="targetPoint" />
          </mxGeometry>
        </mxCell>
        <mxCell id="b7lioFWHBZrYRU6YxalM-57" value="" style="endArrow=classic;html=1;rounded=0;" edge="1" parent="1">
          <mxGeometry width="50" height="50" relative="1" as="geometry">
            <mxPoint x="510" y="314" as="sourcePoint" />
            <mxPoint x="397.5" y="314" as="targetPoint" />
          </mxGeometry>
        </mxCell>
        <mxCell id="b7lioFWHBZrYRU6YxalM-58" value="3: exitSession" style="text;whiteSpace=wrap;" vertex="1" parent="1">
          <mxGeometry x="403.95" y="315" width="110" height="30" as="geometry" />
        </mxCell>
        <mxCell id="b7lioFWHBZrYRU6YxalM-59" value="" style="endArrow=classic;html=1;rounded=0;" edge="1" parent="1">
          <mxGeometry width="50" height="50" relative="1" as="geometry">
            <mxPoint x="343.5" y="315" as="sourcePoint" />
            <mxPoint x="240" y="315" as="targetPoint" />
          </mxGeometry>
        </mxCell>
        <mxCell id="b7lioFWHBZrYRU6YxalM-60" value="4: redirectToLogin" style="text;whiteSpace=wrap;" vertex="1" parent="1">
          <mxGeometry x="237.5" y="315" width="110" height="30" as="geometry" />
        </mxCell>
        <mxCell id="b7lioFWHBZrYRU6YxalM-61" value="Login" style="shape=umlFrame;whiteSpace=wrap;html=1;pointerEvents=0;" vertex="1" parent="1">
          <mxGeometry x="10" y="30" width="580" height="170" as="geometry" />
        </mxCell>
        <mxCell id="b7lioFWHBZrYRU6YxalM-62" value="Logout" style="shape=umlFrame;whiteSpace=wrap;html=1;pointerEvents=0;" vertex="1" parent="1">
          <mxGeometry x="10" y="225" width="580" height="170" as="geometry" />
        </mxCell>
        <mxCell id="b7lioFWHBZrYRU6YxalM-63" value="User" style="shape=umlActor;verticalLabelPosition=bottom;verticalAlign=top;html=1;outlineConnect=0;" vertex="1" parent="1">
          <mxGeometry x="40" y="480" width="30" height="60" as="geometry" />
        </mxCell>
        <mxCell id="b7lioFWHBZrYRU6YxalM-64" value="" style="html=1;verticalLabelPosition=bottom;align=center;labelBackgroundColor=#ffffff;verticalAlign=top;strokeWidth=2;strokeColor=light-dark(#0080F0,#FFFFFF);shadow=0;dashed=0;shape=mxgraph.ios7.icons.reload;" vertex="1" parent="1">
          <mxGeometry x="342.5" y="490" width="55" height="55" as="geometry" />
        </mxCell>
        <mxCell id="b7lioFWHBZrYRU6YxalM-65" value="" style="group" vertex="1" connectable="0" parent="1">
          <mxGeometry x="170" y="495" width="75" height="50" as="geometry" />
        </mxCell>
        <mxCell id="b7lioFWHBZrYRU6YxalM-66" value="" style="ellipse;whiteSpace=wrap;html=1;aspect=fixed;" vertex="1" parent="b7lioFWHBZrYRU6YxalM-65">
          <mxGeometry x="17.857142857142858" width="50" height="50" as="geometry" />
        </mxCell>
        <mxCell id="b7lioFWHBZrYRU6YxalM-67" value="" style="line;strokeWidth=2;html=1;" vertex="1" parent="b7lioFWHBZrYRU6YxalM-65">
          <mxGeometry x="3.5714285714285716" y="21.875" width="14.285714285714286" height="6.25" as="geometry" />
        </mxCell>
        <mxCell id="b7lioFWHBZrYRU6YxalM-68" value="" style="line;strokeWidth=2;direction=south;html=1;" vertex="1" parent="b7lioFWHBZrYRU6YxalM-65">
          <mxGeometry width="7.142857142857143" height="50" as="geometry" />
        </mxCell>
        <mxCell id="b7lioFWHBZrYRU6YxalM-69" value="" style="group" vertex="1" connectable="0" parent="1">
          <mxGeometry x="513.95" y="490" width="52.09" height="56" as="geometry" />
        </mxCell>
        <mxCell id="b7lioFWHBZrYRU6YxalM-70" value="" style="ellipse;whiteSpace=wrap;html=1;aspect=fixed;" vertex="1" parent="b7lioFWHBZrYRU6YxalM-69">
          <mxGeometry width="52.09" height="52.09" as="geometry" />
        </mxCell>
        <mxCell id="b7lioFWHBZrYRU6YxalM-71" value="" style="line;strokeWidth=2;html=1;" vertex="1" parent="b7lioFWHBZrYRU6YxalM-69">
          <mxGeometry y="49.48837209302326" width="52.09" height="6.511627906976745" as="geometry" />
        </mxCell>
        <mxCell id="b7lioFWHBZrYRU6YxalM-72" value=":SignUpUI" style="text;html=1;align=center;verticalAlign=middle;whiteSpace=wrap;rounded=0;fillColor=none;strokeColor=light-dark(transparent,#000000);" vertex="1" parent="1">
          <mxGeometry x="177.5" y="548" width="60" height="30" as="geometry" />
        </mxCell>
        <mxCell id="b7lioFWHBZrYRU6YxalM-73" value=":SignUp" style="text;html=1;align=center;verticalAlign=middle;whiteSpace=wrap;rounded=0;fillColor=none;strokeColor=light-dark(transparent,#000000);" vertex="1" parent="1">
          <mxGeometry x="340" y="545" width="60" height="30" as="geometry" />
        </mxCell>
        <mxCell id="b7lioFWHBZrYRU6YxalM-74" value=":User" style="text;html=1;align=center;verticalAlign=middle;whiteSpace=wrap;rounded=0;" vertex="1" parent="1">
          <mxGeometry x="510" y="546" width="60" height="30" as="geometry" />
        </mxCell>
        <mxCell id="b7lioFWHBZrYRU6YxalM-75" value="1: enterUserInfo&lt;div&gt;2: submitSignUp&lt;/div&gt;" style="text;html=1;align=center;verticalAlign=middle;whiteSpace=wrap;rounded=0;" vertex="1" parent="1">
          <mxGeometry x="237.5" y="480" width="100" height="30" as="geometry" />
        </mxCell>
        <mxCell id="b7lioFWHBZrYRU6YxalM-76" value="3: validateInfo&#xa;4: checkExistID&#xa;5: registerUser" style="text;whiteSpace=wrap;" vertex="1" parent="1">
          <mxGeometry x="401.45" y="460" width="112.5" height="50" as="geometry" />
        </mxCell>
        <mxCell id="b7lioFWHBZrYRU6YxalM-77" value="" style="endArrow=classic;html=1;rounded=0;" edge="1" parent="1">
          <mxGeometry width="50" height="50" relative="1" as="geometry">
            <mxPoint x="70" y="520" as="sourcePoint" />
            <mxPoint x="170" y="520" as="targetPoint" />
          </mxGeometry>
        </mxCell>
        <mxCell id="b7lioFWHBZrYRU6YxalM-78" value="" style="endArrow=classic;html=1;rounded=0;" edge="1" parent="1">
          <mxGeometry width="50" height="50" relative="1" as="geometry">
            <mxPoint x="245" y="510" as="sourcePoint" />
            <mxPoint x="345" y="510" as="targetPoint" />
          </mxGeometry>
        </mxCell>
        <mxCell id="b7lioFWHBZrYRU6YxalM-79" value="" style="endArrow=classic;html=1;rounded=0;" edge="1" parent="1">
          <mxGeometry width="50" height="50" relative="1" as="geometry">
            <mxPoint x="400" y="509.52" as="sourcePoint" />
            <mxPoint x="510" y="510" as="targetPoint" />
          </mxGeometry>
        </mxCell>
        <mxCell id="b7lioFWHBZrYRU6YxalM-80" value="" style="endArrow=classic;html=1;rounded=0;" edge="1" parent="1">
          <mxGeometry width="50" height="50" relative="1" as="geometry">
            <mxPoint x="510" y="524" as="sourcePoint" />
            <mxPoint x="397.5" y="524" as="targetPoint" />
          </mxGeometry>
        </mxCell>
        <mxCell id="b7lioFWHBZrYRU6YxalM-81" value="6: encryptPassword&#xa;7: createAccount" style="text;whiteSpace=wrap;" vertex="1" parent="1">
          <mxGeometry x="403.95" y="525" width="110" height="30" as="geometry" />
        </mxCell>
        <mxCell id="b7lioFWHBZrYRU6YxalM-82" value="" style="endArrow=classic;html=1;rounded=0;" edge="1" parent="1">
          <mxGeometry width="50" height="50" relative="1" as="geometry">
            <mxPoint x="343.5" y="525" as="sourcePoint" />
            <mxPoint x="240" y="525" as="targetPoint" />
          </mxGeometry>
        </mxCell>
        <mxCell id="b7lioFWHBZrYRU6YxalM-83" value="8: showResult" style="text;whiteSpace=wrap;" vertex="1" parent="1">
          <mxGeometry x="245" y="525" width="110" height="30" as="geometry" />
        </mxCell>
        <mxCell id="b7lioFWHBZrYRU6YxalM-84" value="SignUp" style="shape=umlFrame;whiteSpace=wrap;html=1;pointerEvents=0;" vertex="1" parent="1">
          <mxGeometry x="10" y="425" width="580" height="170" as="geometry" />
        </mxCell>
        <mxCell id="b7lioFWHBZrYRU6YxalM-85" value="Admin" style="shape=umlActor;verticalLabelPosition=bottom;verticalAlign=top;html=1;outlineConnect=0;" vertex="1" parent="1">
          <mxGeometry x="40" y="680" width="30" height="60" as="geometry" />
        </mxCell>
        <mxCell id="b7lioFWHBZrYRU6YxalM-86" value="" style="html=1;verticalLabelPosition=bottom;align=center;labelBackgroundColor=#ffffff;verticalAlign=top;strokeWidth=2;strokeColor=light-dark(#0080F0,#FFFFFF);shadow=0;dashed=0;shape=mxgraph.ios7.icons.reload;" vertex="1" parent="1">
          <mxGeometry x="382.5" y="690" width="55" height="55" as="geometry" />
        </mxCell>
        <mxCell id="b7lioFWHBZrYRU6YxalM-87" value="" style="group" vertex="1" connectable="0" parent="1">
          <mxGeometry x="170" y="695" width="75" height="50" as="geometry" />
        </mxCell>
        <mxCell id="b7lioFWHBZrYRU6YxalM-88" value="" style="ellipse;whiteSpace=wrap;html=1;aspect=fixed;" vertex="1" parent="b7lioFWHBZrYRU6YxalM-87">
          <mxGeometry x="17.857142857142858" width="50" height="50" as="geometry" />
        </mxCell>
        <mxCell id="b7lioFWHBZrYRU6YxalM-89" value="" style="line;strokeWidth=2;html=1;" vertex="1" parent="b7lioFWHBZrYRU6YxalM-87">
          <mxGeometry x="3.5714285714285716" y="21.875" width="14.285714285714286" height="6.25" as="geometry" />
        </mxCell>
        <mxCell id="b7lioFWHBZrYRU6YxalM-90" value="" style="line;strokeWidth=2;direction=south;html=1;" vertex="1" parent="b7lioFWHBZrYRU6YxalM-87">
          <mxGeometry width="7.142857142857143" height="50" as="geometry" />
        </mxCell>
        <mxCell id="b7lioFWHBZrYRU6YxalM-91" value="" style="group" vertex="1" connectable="0" parent="1">
          <mxGeometry x="584" y="690" width="52.09" height="56" as="geometry" />
        </mxCell>
        <mxCell id="b7lioFWHBZrYRU6YxalM-92" value="" style="ellipse;whiteSpace=wrap;html=1;aspect=fixed;" vertex="1" parent="b7lioFWHBZrYRU6YxalM-91">
          <mxGeometry width="52.09" height="52.09" as="geometry" />
        </mxCell>
        <mxCell id="b7lioFWHBZrYRU6YxalM-93" value="" style="line;strokeWidth=2;html=1;" vertex="1" parent="b7lioFWHBZrYRU6YxalM-91">
          <mxGeometry y="49.48837209302326" width="52.09" height="6.511627906976745" as="geometry" />
        </mxCell>
        <mxCell id="b7lioFWHBZrYRU6YxalM-94" value=":BicycleRegistrationUI" style="text;html=1;align=center;verticalAlign=middle;whiteSpace=wrap;rounded=0;fillColor=none;strokeColor=light-dark(transparent,#000000);" vertex="1" parent="1">
          <mxGeometry x="177.5" y="748" width="60" height="30" as="geometry" />
        </mxCell>
        <mxCell id="b7lioFWHBZrYRU6YxalM-95" value=":BicycleRegistration" style="text;html=1;align=center;verticalAlign=middle;whiteSpace=wrap;rounded=0;fillColor=none;strokeColor=light-dark(transparent,#000000);" vertex="1" parent="1">
          <mxGeometry x="380" y="745" width="60" height="30" as="geometry" />
        </mxCell>
        <mxCell id="b7lioFWHBZrYRU6YxalM-96" value=":Bicycle" style="text;html=1;align=center;verticalAlign=middle;whiteSpace=wrap;rounded=0;" vertex="1" parent="1">
          <mxGeometry x="580" y="746" width="60" height="30" as="geometry" />
        </mxCell>
        <mxCell id="b7lioFWHBZrYRU6YxalM-97" value="1: loadRegistrationForm&lt;div&gt;2: getInputData&lt;br&gt;3: submitRegistration&lt;/div&gt;" style="text;html=1;align=center;verticalAlign=middle;whiteSpace=wrap;rounded=0;" vertex="1" parent="1">
          <mxGeometry x="237.5" y="670" width="142.5" height="30" as="geometry" />
        </mxCell>
        <mxCell id="b7lioFWHBZrYRU6YxalM-98" value="4: validateInput&#xa;5: registerBicycle" style="text;whiteSpace=wrap;" vertex="1" parent="1">
          <mxGeometry x="460" y="670" width="112.5" height="40" as="geometry" />
        </mxCell>
        <mxCell id="b7lioFWHBZrYRU6YxalM-99" value="" style="endArrow=classic;html=1;rounded=0;" edge="1" parent="1">
          <mxGeometry width="50" height="50" relative="1" as="geometry">
            <mxPoint x="70" y="720" as="sourcePoint" />
            <mxPoint x="170" y="720" as="targetPoint" />
          </mxGeometry>
        </mxCell>
        <mxCell id="b7lioFWHBZrYRU6YxalM-100" value="" style="endArrow=classic;html=1;rounded=0;" edge="1" parent="1">
          <mxGeometry width="50" height="50" relative="1" as="geometry">
            <mxPoint x="245" y="710" as="sourcePoint" />
            <mxPoint x="380" y="710" as="targetPoint" />
          </mxGeometry>
        </mxCell>
        <mxCell id="b7lioFWHBZrYRU6YxalM-101" value="" style="endArrow=classic;html=1;rounded=0;" edge="1" parent="1">
          <mxGeometry width="50" height="50" relative="1" as="geometry">
            <mxPoint x="440" y="709.52" as="sourcePoint" />
            <mxPoint x="580" y="710" as="targetPoint" />
          </mxGeometry>
        </mxCell>
        <mxCell id="b7lioFWHBZrYRU6YxalM-102" value="" style="endArrow=classic;html=1;rounded=0;" edge="1" parent="1">
          <mxGeometry width="50" height="50" relative="1" as="geometry">
            <mxPoint x="580" y="724" as="sourcePoint" />
            <mxPoint x="437.5" y="724" as="targetPoint" />
          </mxGeometry>
        </mxCell>
        <mxCell id="b7lioFWHBZrYRU6YxalM-103" value="6: isValidID&#xa;7: saveBicycle" style="text;whiteSpace=wrap;" vertex="1" parent="1">
          <mxGeometry x="470" y="725" width="110" height="30" as="geometry" />
        </mxCell>
        <mxCell id="b7lioFWHBZrYRU6YxalM-104" value="" style="endArrow=classic;html=1;rounded=0;" edge="1" parent="1">
          <mxGeometry width="50" height="50" relative="1" as="geometry">
            <mxPoint x="380" y="725" as="sourcePoint" />
            <mxPoint x="240" y="725" as="targetPoint" />
          </mxGeometry>
        </mxCell>
        <mxCell id="b7lioFWHBZrYRU6YxalM-105" value="8: showResult" style="text;whiteSpace=wrap;" vertex="1" parent="1">
          <mxGeometry x="270" y="725" width="110" height="30" as="geometry" />
        </mxCell>
        <mxCell id="b7lioFWHBZrYRU6YxalM-106" value="Bicycle&lt;div&gt;Registration&lt;/div&gt;" style="shape=umlFrame;whiteSpace=wrap;html=1;pointerEvents=0;width=90;height=40;" vertex="1" parent="1">
          <mxGeometry x="10" y="630" width="650" height="170" as="geometry" />
        </mxCell>
        <mxCell id="b7lioFWHBZrYRU6YxalM-107" value="Member" style="shape=umlActor;verticalLabelPosition=bottom;verticalAlign=top;html=1;outlineConnect=0;" vertex="1" parent="1">
          <mxGeometry x="40" y="890" width="30" height="60" as="geometry" />
        </mxCell>
        <mxCell id="b7lioFWHBZrYRU6YxalM-163" value="" style="edgeStyle=orthogonalEdgeStyle;rounded=0;orthogonalLoop=1;jettySize=auto;html=1;" edge="1" parent="1" source="b7lioFWHBZrYRU6YxalM-108" target="b7lioFWHBZrYRU6YxalM-125">
          <mxGeometry relative="1" as="geometry" />
        </mxCell>
        <mxCell id="b7lioFWHBZrYRU6YxalM-108" value="" style="html=1;verticalLabelPosition=bottom;align=center;labelBackgroundColor=#ffffff;verticalAlign=top;strokeWidth=2;strokeColor=light-dark(#0080F0,#FFFFFF);shadow=0;dashed=0;shape=mxgraph.ios7.icons.reload;" vertex="1" parent="1">
          <mxGeometry x="382.5" y="900" width="55" height="55" as="geometry" />
        </mxCell>
        <mxCell id="b7lioFWHBZrYRU6YxalM-109" value="" style="group" vertex="1" connectable="0" parent="1">
          <mxGeometry x="170" y="905" width="75" height="50" as="geometry" />
        </mxCell>
        <mxCell id="b7lioFWHBZrYRU6YxalM-110" value="" style="ellipse;whiteSpace=wrap;html=1;aspect=fixed;" vertex="1" parent="b7lioFWHBZrYRU6YxalM-109">
          <mxGeometry x="17.857142857142858" width="50" height="50" as="geometry" />
        </mxCell>
        <mxCell id="b7lioFWHBZrYRU6YxalM-111" value="" style="line;strokeWidth=2;html=1;" vertex="1" parent="b7lioFWHBZrYRU6YxalM-109">
          <mxGeometry x="3.5714285714285716" y="21.875" width="14.285714285714286" height="6.25" as="geometry" />
        </mxCell>
        <mxCell id="b7lioFWHBZrYRU6YxalM-112" value="" style="line;strokeWidth=2;direction=south;html=1;" vertex="1" parent="b7lioFWHBZrYRU6YxalM-109">
          <mxGeometry width="7.142857142857143" height="50" as="geometry" />
        </mxCell>
        <mxCell id="b7lioFWHBZrYRU6YxalM-113" value="" style="group" vertex="1" connectable="0" parent="1">
          <mxGeometry x="584" y="900" width="52.09" height="56" as="geometry" />
        </mxCell>
        <mxCell id="b7lioFWHBZrYRU6YxalM-114" value="" style="ellipse;whiteSpace=wrap;html=1;aspect=fixed;" vertex="1" parent="b7lioFWHBZrYRU6YxalM-113">
          <mxGeometry width="52.09" height="52.09" as="geometry" />
        </mxCell>
        <mxCell id="b7lioFWHBZrYRU6YxalM-115" value="" style="line;strokeWidth=2;html=1;" vertex="1" parent="b7lioFWHBZrYRU6YxalM-113">
          <mxGeometry y="49.48837209302326" width="52.09" height="6.511627906976745" as="geometry" />
        </mxCell>
        <mxCell id="b7lioFWHBZrYRU6YxalM-116" value=":RentalStatusUI" style="text;html=1;align=center;verticalAlign=middle;whiteSpace=wrap;rounded=0;fillColor=none;strokeColor=light-dark(transparent,#000000);" vertex="1" parent="1">
          <mxGeometry x="177.5" y="958" width="60" height="30" as="geometry" />
        </mxCell>
        <mxCell id="b7lioFWHBZrYRU6YxalM-117" value=":RentalStatus" style="text;html=1;align=center;verticalAlign=middle;whiteSpace=wrap;rounded=0;fillColor=none;strokeColor=light-dark(transparent,#000000);" vertex="1" parent="1">
          <mxGeometry x="380" y="955" width="60" height="30" as="geometry" />
        </mxCell>
        <mxCell id="b7lioFWHBZrYRU6YxalM-118" value=":User" style="text;html=1;align=center;verticalAlign=middle;whiteSpace=wrap;rounded=0;" vertex="1" parent="1">
          <mxGeometry x="580" y="956" width="60" height="30" as="geometry" />
        </mxCell>
        <mxCell id="b7lioFWHBZrYRU6YxalM-119" value="1: showCurrentRentals" style="text;html=1;align=center;verticalAlign=middle;whiteSpace=wrap;rounded=0;" vertex="1" parent="1">
          <mxGeometry x="240" y="890" width="142.5" height="30" as="geometry" />
        </mxCell>
        <mxCell id="b7lioFWHBZrYRU6YxalM-120" value="2: getCurrentRentals" style="text;whiteSpace=wrap;" vertex="1" parent="1">
          <mxGeometry x="453" y="892" width="112.5" height="40" as="geometry" />
        </mxCell>
        <mxCell id="b7lioFWHBZrYRU6YxalM-121" value="" style="endArrow=classic;html=1;rounded=0;" edge="1" parent="1">
          <mxGeometry width="50" height="50" relative="1" as="geometry">
            <mxPoint x="70" y="930" as="sourcePoint" />
            <mxPoint x="170" y="930" as="targetPoint" />
          </mxGeometry>
        </mxCell>
        <mxCell id="b7lioFWHBZrYRU6YxalM-122" value="" style="endArrow=classic;html=1;rounded=0;" edge="1" parent="1">
          <mxGeometry width="50" height="50" relative="1" as="geometry">
            <mxPoint x="245" y="920" as="sourcePoint" />
            <mxPoint x="380" y="920" as="targetPoint" />
          </mxGeometry>
        </mxCell>
        <mxCell id="b7lioFWHBZrYRU6YxalM-123" value="" style="endArrow=classic;html=1;rounded=0;" edge="1" parent="1">
          <mxGeometry width="50" height="50" relative="1" as="geometry">
            <mxPoint x="440" y="919.52" as="sourcePoint" />
            <mxPoint x="580" y="920" as="targetPoint" />
          </mxGeometry>
        </mxCell>
        <mxCell id="b7lioFWHBZrYRU6YxalM-124" value="" style="endArrow=classic;html=1;rounded=0;" edge="1" parent="1">
          <mxGeometry width="50" height="50" relative="1" as="geometry">
            <mxPoint x="580" y="934" as="sourcePoint" />
            <mxPoint x="437.5" y="934" as="targetPoint" />
          </mxGeometry>
        </mxCell>
        <mxCell id="b7lioFWHBZrYRU6YxalM-125" value="3: getRentalInfo()" style="text;whiteSpace=wrap;" vertex="1" parent="1">
          <mxGeometry x="470" y="935" width="110" height="30" as="geometry" />
        </mxCell>
        <mxCell id="b7lioFWHBZrYRU6YxalM-126" value="" style="endArrow=classic;html=1;rounded=0;" edge="1" parent="1">
          <mxGeometry width="50" height="50" relative="1" as="geometry">
            <mxPoint x="380" y="935" as="sourcePoint" />
            <mxPoint x="240" y="935" as="targetPoint" />
          </mxGeometry>
        </mxCell>
        <mxCell id="b7lioFWHBZrYRU6YxalM-127" value="4: showRentalInfo()" style="text;whiteSpace=wrap;" vertex="1" parent="1">
          <mxGeometry x="253.75" y="935" width="110" height="30" as="geometry" />
        </mxCell>
        <mxCell id="b7lioFWHBZrYRU6YxalM-129" value="Rental&lt;br&gt;Status" style="shape=umlFrame;whiteSpace=wrap;html=1;pointerEvents=0;width=90;height=40;" vertex="1" parent="1">
          <mxGeometry x="10" y="835" width="650" height="170" as="geometry" />
        </mxCell>
        <mxCell id="b7lioFWHBZrYRU6YxalM-130" value="Member" style="shape=umlActor;verticalLabelPosition=bottom;verticalAlign=top;html=1;outlineConnect=0;" vertex="1" parent="1">
          <mxGeometry x="40" y="1090" width="30" height="60" as="geometry" />
        </mxCell>
        <mxCell id="b7lioFWHBZrYRU6YxalM-131" value="" style="html=1;verticalLabelPosition=bottom;align=center;labelBackgroundColor=#ffffff;verticalAlign=top;strokeWidth=2;strokeColor=light-dark(#0080F0,#FFFFFF);shadow=0;dashed=0;shape=mxgraph.ios7.icons.reload;" vertex="1" parent="1">
          <mxGeometry x="382.5" y="1100" width="55" height="55" as="geometry" />
        </mxCell>
        <mxCell id="b7lioFWHBZrYRU6YxalM-132" value="" style="group" vertex="1" connectable="0" parent="1">
          <mxGeometry x="170" y="1105" width="75" height="50" as="geometry" />
        </mxCell>
        <mxCell id="b7lioFWHBZrYRU6YxalM-133" value="" style="ellipse;whiteSpace=wrap;html=1;aspect=fixed;" vertex="1" parent="b7lioFWHBZrYRU6YxalM-132">
          <mxGeometry x="17.857142857142858" width="50" height="50" as="geometry" />
        </mxCell>
        <mxCell id="b7lioFWHBZrYRU6YxalM-134" value="" style="line;strokeWidth=2;html=1;" vertex="1" parent="b7lioFWHBZrYRU6YxalM-132">
          <mxGeometry x="3.5714285714285716" y="21.875" width="14.285714285714286" height="6.25" as="geometry" />
        </mxCell>
        <mxCell id="b7lioFWHBZrYRU6YxalM-135" value="" style="line;strokeWidth=2;direction=south;html=1;" vertex="1" parent="b7lioFWHBZrYRU6YxalM-132">
          <mxGeometry width="7.142857142857143" height="50" as="geometry" />
        </mxCell>
        <mxCell id="b7lioFWHBZrYRU6YxalM-136" value="" style="group" vertex="1" connectable="0" parent="1">
          <mxGeometry x="584" y="1100" width="52.09000000000003" height="95.74000000000001" as="geometry" />
        </mxCell>
        <mxCell id="b7lioFWHBZrYRU6YxalM-137" value="" style="ellipse;whiteSpace=wrap;html=1;aspect=fixed;" vertex="1" parent="b7lioFWHBZrYRU6YxalM-136">
          <mxGeometry width="52.09" height="52.09" as="geometry" />
        </mxCell>
        <mxCell id="b7lioFWHBZrYRU6YxalM-138" value="" style="line;strokeWidth=2;html=1;" vertex="1" parent="b7lioFWHBZrYRU6YxalM-136">
          <mxGeometry y="49.48837209302326" width="52.09" height="6.511627906976745" as="geometry" />
        </mxCell>
        <mxCell id="b7lioFWHBZrYRU6YxalM-151" value="" style="group" vertex="1" connectable="0" parent="b7lioFWHBZrYRU6YxalM-136">
          <mxGeometry x="-9.999999999999968" y="110.00000000000001" width="52.09" height="56" as="geometry" />
        </mxCell>
        <mxCell id="b7lioFWHBZrYRU6YxalM-152" value="" style="ellipse;whiteSpace=wrap;html=1;aspect=fixed;" vertex="1" parent="b7lioFWHBZrYRU6YxalM-151">
          <mxGeometry width="52.09" height="52.09" as="geometry" />
        </mxCell>
        <mxCell id="b7lioFWHBZrYRU6YxalM-153" value="" style="line;strokeWidth=2;html=1;" vertex="1" parent="b7lioFWHBZrYRU6YxalM-151">
          <mxGeometry y="49.48837209302326" width="52.09" height="6.511627906976745" as="geometry" />
        </mxCell>
        <mxCell id="b7lioFWHBZrYRU6YxalM-154" value=":RentInfo&amp;nbsp;" style="text;html=1;align=center;verticalAlign=middle;whiteSpace=wrap;rounded=0;" vertex="1" parent="b7lioFWHBZrYRU6YxalM-136">
          <mxGeometry x="-13.999999999999968" y="166" width="60" height="30" as="geometry" />
        </mxCell>
        <mxCell id="b7lioFWHBZrYRU6YxalM-139" value=":RentBicycleUI" style="text;html=1;align=center;verticalAlign=middle;whiteSpace=wrap;rounded=0;fillColor=none;strokeColor=light-dark(transparent,#000000);" vertex="1" parent="1">
          <mxGeometry x="177.5" y="1158" width="60" height="30" as="geometry" />
        </mxCell>
        <mxCell id="b7lioFWHBZrYRU6YxalM-140" value=":RentBicycle" style="text;html=1;align=center;verticalAlign=middle;whiteSpace=wrap;rounded=0;fillColor=none;strokeColor=light-dark(transparent,#000000);" vertex="1" parent="1">
          <mxGeometry x="380" y="1155" width="60" height="30" as="geometry" />
        </mxCell>
        <mxCell id="b7lioFWHBZrYRU6YxalM-141" value=":Bicycle" style="text;html=1;align=center;verticalAlign=middle;whiteSpace=wrap;rounded=0;" vertex="1" parent="1">
          <mxGeometry x="580" y="1156" width="60" height="30" as="geometry" />
        </mxCell>
        <mxCell id="b7lioFWHBZrYRU6YxalM-142" value="1: showAvailableBicycles&lt;br&gt;2: SelectRentBicycle" style="text;html=1;align=center;verticalAlign=middle;whiteSpace=wrap;rounded=0;" vertex="1" parent="1">
          <mxGeometry x="240" y="1090" width="142.5" height="30" as="geometry" />
        </mxCell>
        <mxCell id="b7lioFWHBZrYRU6YxalM-143" value="3: fetchAvailableBicycles&#xa;" style="text;whiteSpace=wrap;" vertex="1" parent="1">
          <mxGeometry x="440" y="1090" width="137" height="40" as="geometry" />
        </mxCell>
        <mxCell id="b7lioFWHBZrYRU6YxalM-144" value="" style="endArrow=classic;html=1;rounded=0;" edge="1" parent="1">
          <mxGeometry width="50" height="50" relative="1" as="geometry">
            <mxPoint x="70" y="1130" as="sourcePoint" />
            <mxPoint x="170" y="1130" as="targetPoint" />
          </mxGeometry>
        </mxCell>
        <mxCell id="b7lioFWHBZrYRU6YxalM-145" value="" style="endArrow=classic;html=1;rounded=0;" edge="1" parent="1">
          <mxGeometry width="50" height="50" relative="1" as="geometry">
            <mxPoint x="245" y="1120" as="sourcePoint" />
            <mxPoint x="380" y="1120" as="targetPoint" />
          </mxGeometry>
        </mxCell>
        <mxCell id="b7lioFWHBZrYRU6YxalM-146" value="" style="endArrow=classic;html=1;rounded=0;" edge="1" parent="1">
          <mxGeometry width="50" height="50" relative="1" as="geometry">
            <mxPoint x="440" y="1119.52" as="sourcePoint" />
            <mxPoint x="580" y="1120" as="targetPoint" />
          </mxGeometry>
        </mxCell>
        <mxCell id="b7lioFWHBZrYRU6YxalM-147" value="" style="endArrow=classic;html=1;rounded=0;" edge="1" parent="1">
          <mxGeometry width="50" height="50" relative="1" as="geometry">
            <mxPoint x="460" y="1140" as="sourcePoint" />
            <mxPoint x="568.5" y="1230" as="targetPoint" />
          </mxGeometry>
        </mxCell>
        <mxCell id="b7lioFWHBZrYRU6YxalM-149" value="" style="endArrow=classic;html=1;rounded=0;" edge="1" parent="1">
          <mxGeometry width="50" height="50" relative="1" as="geometry">
            <mxPoint x="577" y="1130" as="sourcePoint" />
            <mxPoint x="450" y="1130" as="targetPoint" />
          </mxGeometry>
        </mxCell>
        <mxCell id="b7lioFWHBZrYRU6YxalM-155" value="" style="endArrow=classic;html=1;rounded=0;" edge="1" parent="1">
          <mxGeometry width="50" height="50" relative="1" as="geometry">
            <mxPoint x="560" y="1240" as="sourcePoint" />
            <mxPoint x="450" y="1150" as="targetPoint" />
          </mxGeometry>
        </mxCell>
        <mxCell id="b7lioFWHBZrYRU6YxalM-157" value="3.1: setAvailable(false)" style="text;whiteSpace=wrap;" vertex="1" parent="1">
          <mxGeometry x="470" y="1127.87" width="140" height="40" as="geometry" />
        </mxCell>
        <mxCell id="b7lioFWHBZrYRU6YxalM-159" style="edgeStyle=orthogonalEdgeStyle;rounded=0;orthogonalLoop=1;jettySize=auto;html=1;exitX=0;exitY=0.75;exitDx=0;exitDy=0;entryX=0;entryY=0.5;entryDx=0;entryDy=0;" edge="1" parent="1">
          <mxGeometry relative="1" as="geometry">
            <mxPoint x="700" y="1200" as="sourcePoint" />
            <mxPoint x="700" y="1190" as="targetPoint" />
          </mxGeometry>
        </mxCell>
        <mxCell id="b7lioFWHBZrYRU6YxalM-160" value="4: rentBicycle" style="text;whiteSpace=wrap;" vertex="1" parent="1">
          <mxGeometry x="500" y="1156" width="110" height="40" as="geometry" />
        </mxCell>
        <mxCell id="b7lioFWHBZrYRU6YxalM-161" value="4.1: save rental info" style="text;whiteSpace=wrap;" vertex="1" parent="1">
          <mxGeometry x="403.95" y="1210" width="130" height="40" as="geometry" />
        </mxCell>
        <mxCell id="b7lioFWHBZrYRU6YxalM-162" value="5: showRentMessage" style="text;whiteSpace=wrap;" vertex="1" parent="1">
          <mxGeometry x="250.5" y="1130" width="150" height="40" as="geometry" />
        </mxCell>
        <mxCell id="b7lioFWHBZrYRU6YxalM-164" value="" style="endArrow=classic;html=1;rounded=0;" edge="1" parent="1">
          <mxGeometry width="50" height="50" relative="1" as="geometry">
            <mxPoint x="380" y="1130" as="sourcePoint" />
            <mxPoint x="240" y="1130" as="targetPoint" />
          </mxGeometry>
        </mxCell>
        <mxCell id="b7lioFWHBZrYRU6YxalM-166" value="Rent&lt;br&gt;Bicycle" style="shape=umlFrame;whiteSpace=wrap;html=1;pointerEvents=0;width=90;height=40;" vertex="1" parent="1">
          <mxGeometry x="10" y="1032.5" width="650" height="277.5" as="geometry" />
        </mxCell>
      </root>
    </mxGraphModel>
  </diagram>
</mxfile>
